0
SECTION
2
HEADER
9
$INSUNITS
70
4
9
$ACADVER
1
AC1014
9
$HANDSEED
5
FFFF
0
ENDSEC
0
SECTION
2
TABLES
0
TABLE
2
VPORT
5
8
100
AcDbSymbolTable
0
ENDTAB
0
TABLE
2
LTYPE
5
5
100
AcDbSymbolTable
0
LTYPE
5
14
100
AcDbSymbolTableRecord
100
AcDbLinetypeTableRecord
2
BYBLOCK
70
0
0
LTYPE
5
15
100
AcDbSymbolTableRecord
100
AcDbLinetypeTableRecord
2
BYLAYER
70
0
0
ENDTAB
0
TABLE
2
LAYER
5
2
100
AcDbSymbolTable
70
2
0
LAYER
5
50
100
AcDbSymbolTableRecord
100
AcDbLayerTableRecord
2
0
70
0
6
CONTINUOUS
0
ENDTAB
0
TABLE
2
STYLE
5
3
100
AcDbSymbolTable
70
1
0
STYLE
5
11
100
AcDbSymbolTableRecord
100
AcDbTextStyleTableRecord
2
STANDARD
70
0
0
ENDTAB
0
TABLE
2
VIEW
5
6
100
AcDbSymbolTable
70
0
0
ENDTAB
0
TABLE
2
UCS
5
7
100
AcDbSymbolTable
70
0
0
ENDTAB
0
TABLE
2
APPID
5
9
100
AcDbSymbolTable
70
2
0
APPID
5
12
100
AcDbSymbolTableRecord
100
AcDbRegAppTableRecord
2
ACAD
70
0
0
ENDTAB
0
TABLE
2
DIMSTYLE
5
A
100
AcDbSymbolTable
70
1
0
ENDTAB
0
TABLE
2
BLOCK_RECORD
5
1
100
AcDbSymbolTable
70
1
0
BLOCK_RECORD
5
1F
100
AcDbSymbolTableRecord
100
AcDbBlockTableRecord
2
*MODEL_SPACE
0
BLOCK_RECORD
5
1B
100
AcDbSymbolTableRecord
100
AcDbBlockTableRecord
2
*PAPER_SPACE
0
ENDTAB
0
ENDSEC
0
SECTION
2
BLOCKS
0
BLOCK
5
20
100
AcDbEntity
100
AcDbBlockBegin
2
*MODEL_SPACE
0
ENDBLK
5
21
100
AcDbEntity
100
AcDbBlockEnd
0
BLOCK
5
1C
100
AcDbEntity
100
AcDbBlockBegin
2
*PAPER_SPACE
0
ENDBLK
5
1D
100
AcDbEntity
100
AcDbBlockEnd
0
ENDSEC
0
SECTION
2
ENTITIES
0
ARC
5
100
100
AcDbEntity
8
0
100
AcDbCircle
10
557.31693427166419
20
936.03339352725106
30
0
40
7.9999999999969793
210
0
220
0
230
1
100
AcDbArc
50
90.559255000000107
51
180.56094900000113
0
LINE
5
101
100
AcDbEntity
8
0
100
AcDbLine
10
744.15512558742557
20
827.08942564238077
30
0
11
743.07073205870574
21
937.84680174861342
31
0
0
ARC
5
102
100
AcDbEntity
8
0
100
AcDbCircle
10
551.40161333081153
20
825.21260442962796
30
0
40
1.0000000004378407
210
0
220
0
230
1
100
AcDbArc
50
180.56094899999786
51
306.26257399999201
0
LINE
5
103
100
AcDbEntity
8
0
100
AcDbLine
10
591.23680079687131
20
834.38940998580858
30
0
11
703.35541255234841
21
835.48381646192047
31
0
0
LINE
5
104
100
AcDbEntity
8
0
100
AcDbLine
10
734.99302987246267
20
945.76809901407864
30
0
11
557.2388485673913
21
944.0330126600121
31
0
0
CIRCLE
5
105
100
AcDbEntity
8
0
100
AcDbCircle
10
581.58421723745835
20
922.26507398078479
30
0
40
1.5000000000000302
210
0
220
-0
230
1
0
CIRCLE
5
106
100
AcDbEntity
8
0
100
AcDbCircle
10
582.22547801831979
20
856.76821284397352
30
0
40
1.4999999999997633
210
0
220
-0
230
1
0
LINE
5
107
100
AcDbEntity
8
0
100
AcDbLine
10
549.31731778969402
20
935.95507165995514
30
0
11
550.40166188603575
21
825.20281481816573
31
0
0
ARC
5
108
100
AcDbEntity
8
0
100
AcDbCircle
10
735.07111557673579
20
937.76847988131772
30
0
40
7.9999999999983187
210
0
220
-0
230
1
100
AcDbArc
50
0.56094899999981773
51
90.559255000000022
0
CIRCLE
5
109
100
AcDbEntity
8
0
100
AcDbCircle
10
708.21943954368476
20
858.00178420858083
30
0
40
1.5000000000027647
210
0
220
-0
230
1
0
ARC
5
110
100
AcDbEntity
8
0
100
AcDbCircle
10
743.15517343925512
20
827.07963532011888
30
0
40
1.0000000000007745
210
0
220
0
230
1
100
AcDbArc
50
-125.15293500000348
51
0.56094900000176706
0
CIRCLE
5
111
100
AcDbEntity
8
0
100
AcDbCircle
10
711.81513658894664
20
923.54000224921208
30
0
40
1.4999999999970601
210
0
220
-0
230
1
0
ARC
5
112
100
AcDbEntity
8
0
100
AcDbCircle
10
592.07042382174791
20
748.98726890140654
30
0
40
85.406209546775784
210
0
220
0
230
1
100
AcDbArc
50
90.55925487996771
51
117.98597310634752
0
ARC
5
113
100
AcDbEntity
8
0
100
AcDbCircle
10
704.18041990885956
20
750.96432437271062
30
0
40
84.523518503173349
210
0
220
-0
230
1
100
AcDbArc
50
62.980127777132296
51
90.559254879967668
0
LINE
5
114
100
AcDbEntity
8
0
100
AcDbLine
10
603.78048490293895
20
908.16085017056264
30
0
11
689.23282907606927
21
908.99496386178043
31
0
0
LINE
5
115
100
AcDbEntity
8
0
100
AcDbLine
10
646.11593921992699
20
944.90055583704532
30
0
11
647.29610667460986
21
834.93661322386458
31
0
0
LINE
5
116
100
AcDbEntity
8
0
100
AcDbLine
10
603.75521449129997
20
910.16085017056275
30
0
11
646.4838550224033
21
910.61942731630086
31
0
0
LINE
5
117
100
AcDbEntity
8
0
100
AcDbLine
10
689.21329975564072
20
910.99568178344555
30
0
11
646.4838550224033
21
910.61942731630086
31
0
0
LINE
5
118
100
AcDbEntity
8
0
100
AcDbLine
10
689.21329975564072
20
904.99568178344566
30
0
11
646.4838550224033
21
904.61942731630086
31
0
0
LINE
5
119
100
AcDbEntity
8
0
100
AcDbLine
10
603.75521449129997
20
904.16085017056275
30
0
11
646.4838550224033
21
904.61942731630086
31
0
0
LINE
5
120
100
AcDbEntity
8
0
100
AcDbLine
10
603.78048490293895
20
902.16085017056275
30
0
11
689.23282907606927
21
902.99496386178043
31
0
0
LINE
5
121
100
AcDbEntity
8
0
100
AcDbLine
10
689.21329975564072
20
898.99568178344566
30
0
11
646.4838550224033
21
898.61942731630097
31
0
0
LINE
5
122
100
AcDbEntity
8
0
100
AcDbLine
10
603.75521449129997
20
898.16085017056275
30
0
11
646.4838550224033
21
898.61942731630097
31
0
0
LINE
5
123
100
AcDbEntity
8
0
100
AcDbLine
10
603.78048490293895
20
896.16085017056275
30
0
11
689.23282907606927
21
896.99496386178055
31
0
0
ARC
5
124
100
AcDbEntity
8
0
100
AcDbCircle
10
689.22306441585511
20
897.99532282261316
30
0
40
1.0004066168849011
210
0
220
0
230
1
100
AcDbArc
50
-89.440744700002497
51
90.559255300010591
0
ARC
5
125
100
AcDbEntity
8
0
100
AcDbCircle
10
689.22306441585511
20
903.99532282261305
30
0
40
1.0004066168849011
210
0
220
0
230
1
100
AcDbArc
50
-89.440744700002497
51
90.559255300010534
0
ARC
5
126
100
AcDbEntity
8
0
100
AcDbCircle
10
689.22306441585511
20
909.99532282261293
30
0
40
1.0004066168849011
210
0
220
0
230
1
100
AcDbArc
50
-89.44074470000244
51
90.559255300010534
0
ARC
5
127
100
AcDbEntity
8
0
100
AcDbCircle
10
603.76784969711946
20
909.16085017056275
30
0
40
1.0000798210273816
210
0
220
0
230
1
100
AcDbArc
50
90.505879818286317
51
270.72390544492094
0
ARC
5
128
100
AcDbEntity
8
0
100
AcDbCircle
10
603.76784969711946
20
903.16085017056275
30
0
40
1.0000798210273816
210
0
220
0
230
1
100
AcDbArc
50
90.505879818286317
51
270.72390544492106
0
ARC
5
129
100
AcDbEntity
8
0
100
AcDbCircle
10
603.76784969711946
20
897.16085017056287
30
0
40
1.0000798210273816
210
0
220
0
230
1
100
AcDbArc
50
90.505879818286317
51
270.72390544492094
0
ENDSEC
0
SECTION
2
OBJECTS
0
DICTIONARY
5
C
100
AcDbDictionary
3
ACAD_GROUP
350
D
3
ACAD_MLINESTYLE
350
17
0
DICTIONARY
5
D
100
AcDbDictionary
0
DICTIONARY
5
1A
330
C
100
AcDbDictionary
0
DICTIONARY
5
17
100
AcDbDictionary
0
ENDSEC
0
EOF
