0
SECTION
2
HEADER
9
$INSUNITS
70
4
9
$ACADVER
1
AC1014
9
$HANDSEED
5
FFFF
0
ENDSEC
0
SECTION
2
TABLES
0
TABLE
2
VPORT
5
8
100
AcDbSymbolTable
0
ENDTAB
0
TABLE
2
LTYPE
5
5
100
AcDbSymbolTable
0
LTYPE
5
14
100
AcDbSymbolTableRecord
100
AcDbLinetypeTableRecord
2
BYBLOCK
70
0
0
LTYPE
5
15
100
AcDbSymbolTableRecord
100
AcDbLinetypeTableRecord
2
BYLAYER
70
0
0
ENDTAB
0
TABLE
2
LAYER
5
2
100
AcDbSymbolTable
70
2
0
LAYER
5
50
100
AcDbSymbolTableRecord
100
AcDbLayerTableRecord
2
0
70
0
6
CONTINUOUS
0
ENDTAB
0
TABLE
2
STYLE
5
3
100
AcDbSymbolTable
70
1
0
STYLE
5
11
100
AcDbSymbolTableRecord
100
AcDbTextStyleTableRecord
2
STANDARD
70
0
0
ENDTAB
0
TABLE
2
VIEW
5
6
100
AcDbSymbolTable
70
0
0
ENDTAB
0
TABLE
2
UCS
5
7
100
AcDbSymbolTable
70
0
0
ENDTAB
0
TABLE
2
APPID
5
9
100
AcDbSymbolTable
70
2
0
APPID
5
12
100
AcDbSymbolTableRecord
100
AcDbRegAppTableRecord
2
ACAD
70
0
0
ENDTAB
0
TABLE
2
DIMSTYLE
5
A
100
AcDbSymbolTable
70
1
0
ENDTAB
0
TABLE
2
BLOCK_RECORD
5
1
100
AcDbSymbolTable
70
1
0
BLOCK_RECORD
5
1F
100
AcDbSymbolTableRecord
100
AcDbBlockTableRecord
2
*MODEL_SPACE
0
BLOCK_RECORD
5
1B
100
AcDbSymbolTableRecord
100
AcDbBlockTableRecord
2
*PAPER_SPACE
0
ENDTAB
0
ENDSEC
0
SECTION
2
BLOCKS
0
BLOCK
5
20
100
AcDbEntity
100
AcDbBlockBegin
2
*MODEL_SPACE
0
ENDBLK
5
21
100
AcDbEntity
100
AcDbBlockEnd
0
BLOCK
5
1C
100
AcDbEntity
100
AcDbBlockBegin
2
*PAPER_SPACE
0
ENDBLK
5
1D
100
AcDbEntity
100
AcDbBlockEnd
0
ENDSEC
0
SECTION
2
ENTITIES
0
CIRCLE
5
100
100
AcDbEntity
8
0
100
AcDbCircle
10
-749.70205071930332
20
329.13722288478743
30
0
40
1.5000000000000004
210
0
220
0
230
1
0
ARC
5
101
100
AcDbEntity
8
0
100
AcDbCircle
10
-932.82067324197794
20
394.96029729090429
30
0
40
18.805322520700681
210
0
220
0
230
1
100
AcDbArc
50
90.80069275719994
51
180.80069275719976
0
LINE
5
102
100
AcDbEntity
8
0
100
AcDbLine
10
-754.78027111733195
20
339.99377185414687
30
0
11
-757.77997813688228
21
339.95184904462621
31
0
0
CIRCLE
5
103
100
AcDbEntity
8
0
100
AcDbCircle
10
-916.91493142393847
20
462.27318941112674
30
0
40
38.230596139027902
210
0
220
0
230
1
0
LWPOLYLINE
5
104
100
AcDbEntity
8
0
100
AcDbPolyline
90
18
70
1
43
0.0
10
-736.84085312634738
20
217.06722340188486
42
-0.11265584541312293
10
-737.69503199384644
20
213.10033861725037
10
-742.28263936258929
20
203.26532715607047
42
-0.28788344603937027
10
-749.84442582197721
20
198.37853173341631
10
-951.74612805969798
20
195.72827125660351
42
-0.28788344824148437
10
-959.43357996705663
20
200.41489778135775
10
-964.27936916644398
20
210.12932803022085
42
-0.11308578442015205
10
-965.23758154436655
20
214.08790926570737
10
-968.47263813575614
20
477.58721859804274
42
-0.15879953558603885
10
-959.233904095551
20
507.17116456897816
42
0.15901716304436314
10
-952.05779044368524
20
530.18459244753035
10
-953.36628138623621
20
629.86780060907427
42
-0.41422222119515789
10
-945.47173693178468
20
637.97211747835956
10
-767.72433182923055
20
640.3000619163206
42
-0.41420490241766578
10
-759.62025454456477
20
632.40575087705929
10
-758.3210717750103
20
533.43168672714057
42
0.16110711646705253
10
-750.35219398673519
20
510.36202626712537
42
-0.16132490177428982
10
-740.07597318123862
20
480.5717019138944
0
CIRCLE
5
105
100
AcDbEntity
8
0
100
AcDbCircle
10
-791.79432947813916
20
464.0619645545317
30
0
40
38.230596139028364
210
0
220
0
230
1
0
LWPOLYLINE
5
106
100
AcDbEntity
8
0
100
AcDbPolyline
90
4
70
1
43
0.0
10
-950.1872180752481
20
332.68592058817842
10
-755.2062588865715
20
335.41091778391427
10
-753.84655513334133
20
238.12041809710587
10
-948.82751432201781
20
235.39542090137004
0
LWPOLYLINE
5
107
100
AcDbEntity
8
0
100
AcDbPolyline
90
4
70
1
43
0.0
10
-839.32908848353441
20
449.5066985780295
42
-0.99999999999999989
10
-868.8840225500544
20
449.11874578944946
10
-869.2961530438522
20
480.51556233957263
42
-1.0000000105367122
10
-839.74121897324608
20
480.90351481674054
0
LINE
5
108
100
AcDbEntity
8
0
100
AcDbLine
10
-755.2062588865715
20
335.41091778391427
30
0
11
-950.1872180752481
21
332.68592058817842
31
0
0
LINE
5
109
100
AcDbEntity
8
0
100
AcDbLine
10
-736.85310847143808
20
218.00113108766084
30
0
11
-965.24803139862809
21
215.00310721812076
31
0
0
CIRCLE
5
110
100
AcDbEntity
8
0
100
AcDbCircle
10
-791.79432947813916
20
464.0619645545317
30
0
40
38.230596139028364
210
0
220
0
230
1
0
LINE
5
111
100
AcDbEntity
8
0
100
AcDbLine
10
-933.08346389732742
20
413.76378356816241
30
0
11
-787.88603149918174
21
415.79300984313863
31
0
0
CIRCLE
5
112
100
AcDbEntity
8
0
100
AcDbCircle
10
-916.91493142393847
20
462.27318941112674
30
0
40
38.230596139027902
210
0
220
0
230
1
0
CIRCLE
5
113
100
AcDbEntity
8
0
100
AcDbCircle
10
-875.53092979405221
20
429.20950701841048
30
0
40
1.4999999999999685
210
0
220
0
230
1
0
CIRCLE
5
114
100
AcDbEntity
8
0
100
AcDbCircle
10
-950.79556342962201
20
419.01119998799732
30
0
40
1.4999999999999685
210
0
220
0
230
1
0
LINE
5
115
100
AcDbEntity
8
0
100
AcDbLine
10
-757.77997813688228
20
339.95184904462621
30
0
11
-757.86658942535325
21
346.14912224878356
31
0
0
LINE
5
116
100
AcDbEntity
8
0
100
AcDbLine
10
-755.39809341390855
20
384.2006371614255
30
0
11
-754.78027111733195
21
339.99377185414687
31
0
0
LINE
5
117
100
AcDbEntity
8
0
100
AcDbLine
10
-736.85310847143808
20
218.00113108766084
30
0
11
-965.24803139862809
21
215.00310721812076
31
0
0
ARC
5
118
100
AcDbEntity
8
0
100
AcDbCircle
10
941.90883909497188
20
343.57700074254126
30
0
40
6.0000000642214415
210
-0
220
0
230
-1
100
AcDbArc
50
-0.80069275719932409
51
89.199302787560057
0
CIRCLE
5
119
100
AcDbEntity
8
0
100
AcDbCircle
10
-756.55519208099747
20
421.72584760439264
30
0
40
1.4999999999999685
210
0
220
0
230
1
0
LINE
5
120
100
AcDbEntity
8
0
100
AcDbLine
10
-749.84442634613504
20
198.37853172653627
30
0
11
-951.74612713487045
21
195.72827126874353
31
0
0
LINE
5
121
100
AcDbEntity
8
0
100
AcDbLine
10
-737.00822895473891
20
230.70018898816807
30
0
11
-965.40472741408644
21
227.70214443741941
31
0
0
ARC
5
122
100
AcDbEntity
8
0
100
AcDbCircle
10
-787.43824997480056
20
383.75285324887034
30
0
40
32.043285457000522
210
0
220
-0
230
1
100
AcDbArc
50
0.80069702784970986
51
90.800692757200309
0
CIRCLE
5
123
100
AcDbEntity
8
0
100
AcDbCircle
10
-832.07543054408939
20
429.81682867699072
30
0
40
1.4999999999999685
210
0
220
0
230
1
0
ARC
5
124
100
AcDbEntity
8
0
100
AcDbCircle
10
-854.1065555167944
20
449.31272218373948
30
0
40
14.778740093818195
210
0
220
0
230
1
100
AcDbArc
50
-179.24795024581127
51
0.75204975418874365
0
LINE
5
125
100
AcDbEntity
8
0
100
AcDbLine
10
-947.90825328991286
20
343.49315512132222
30
0
11
-947.82164246093191
21
337.29588173638291
31
0
0
LINE
5
126
100
AcDbEntity
8
0
100
AcDbLine
10
-763.94984974167141
20
352.06469040760931
30
0
11
-941.99268518269707
21
349.57641493096276
31
0
0
LINE
5
127
100
AcDbEntity
8
0
100
AcDbLine
10
-950.82134948048201
20
337.2539589268622
30
0
11
-951.62415951923617
21
394.69750663555476
31
0
0
LINE
5
128
100
AcDbEntity
8
0
100
AcDbLine
10
-947.82164246093191
20
337.29588173638291
30
0
11
-950.82134948048201
21
337.2539589268622
31
0
0
LINE
5
129
100
AcDbEntity
8
0
100
AcDbLine
10
-950.1872180752481
20
332.68592058817842
30
0
11
-948.82751432201781
21
235.39542090137004
31
0
0
LINE
5
130
100
AcDbEntity
8
0
100
AcDbLine
10
-753.84655513334133
20
238.12041809710587
30
0
11
-755.2062588865715
21
335.41091778391427
31
0
0
LINE
5
131
100
AcDbEntity
8
0
100
AcDbLine
10
-947.82164246093191
20
337.29588173638291
30
0
11
-757.77997813688228
21
339.95184904462621
31
0
0
ARC
5
132
100
AcDbEntity
8
0
100
AcDbCircle
10
-932.83273439540824
20
394.96011746138822
30
0
40
18.805322520700599
210
0
220
0
230
1
100
AcDbArc
50
90.800696754188991
51
178.74878175418905
0
LINE
5
133
100
AcDbEntity
8
0
100
AcDbLine
10
-965.2601885064355
20
215.9292739290679
30
0
11
-968.38624381760781
21
470.55029589850665
31
0
0
ARC
5
134
100
AcDbEntity
8
0
100
AcDbCircle
10
763.86600365339586
20
346.06527617983664
30
0
40
6.0000001035766495
210
0
220
0
230
-1
100
AcDbArc
50
89.199302787556277
51
179.19930297214935
0
CIRCLE
5
135
100
AcDbEntity
8
0
100
AcDbCircle
10
-878.22443326792393
20
502.07333469129617
30
0
40
1.4999999999999685
210
0
220
0
230
1
0
CIRCLE
5
136
100
AcDbEntity
8
0
100
AcDbCircle
10
-946.2472082368356
20
501.12266801388841
30
0
40
1.4999999999999685
210
0
220
0
230
1
0
LWPOLYLINE
5
137
100
AcDbEntity
8
0
100
AcDbPolyline
90
5
70
1
43
0.0
10
-764.76620749987035
20
634.24837907763265
10
-764.66776744358981
20
626.74902512319602
10
-763.42387731279268
20
531.98718838567311
10
-939.92867107141683
20
529.67030049801258
10
-941.27100126566461
20
631.93149118987822
0
CIRCLE
5
138
100
AcDbEntity
8
0
100
AcDbCircle
10
-763.39645466512309
20
503.67813696295559
30
0
40
1.8041661319558753
210
0
220
0
230
1
0
CIRCLE
5
139
100
AcDbEntity
8
0
100
AcDbCircle
10
-954.30320061146085
20
234.0236030674277
30
0
40
1.5000000000000004
210
0
220
0
230
1
0
ARC
5
140
100
AcDbEntity
8
0
100
AcDbCircle
10
-951.85725399725129
20
204.1941485701829
30
0
40
8.4666070502604445
210
0
220
0
230
1
100
AcDbArc
50
206.51111575418861
51
270.75204975418927
0
LINE
5
141
100
AcDbEntity
8
0
100
AcDbLine
10
-758.32107177501018
20
533.43168672714046
30
0
11
-759.52837698824726
21
625.40635451344258
31
0
0
LINE
5
142
100
AcDbEntity
8
0
100
AcDbLine
10
-952.3042028596999
20
525.27599080130744
30
0
11
-757.84054602386891
21
527.82861743572573
31
0
0
CIRCLE
5
143
100
AcDbEntity
8
0
100
AcDbCircle
10
-955.51395206416817
20
326.26085559052711
30
0
40
1.4999999999999685
210
0
220
0
230
1
0
LINE
5
144
100
AcDbEntity
8
0
100
AcDbLine
10
-964.27775982294884
20
210.12610175386192
30
0
11
-959.43357964910786
21
200.41489714396153
31
0
0
ARC
5
145
100
AcDbEntity
8
0
100
AcDbCircle
10
-745.95932400495371
20
216.95527239070208
30
0
40
9.1191580857497936
210
0
220
0
230
1
100
AcDbArc
50
-25.007017245810221
51
0.75204975418971298
0
LINE
5
146
100
AcDbEntity
8
0
100
AcDbLine
10
-951.99341126902846
20
525.2800704062322
30
0
11
-953.27440384924648
21
622.86840355762422
31
0
0
ARC
5
147
100
AcDbEntity
8
0
100
AcDbCircle
10
-749.95555320851599
20
206.8444090279757
30
0
40
8.4666070502646971
210
0
220
0
230
1
100
AcDbArc
50
270.75204975419035
51
334.99298275418778
0
CIRCLE
5
148
100
AcDbEntity
8
0
100
AcDbCircle
10
-831.41922882921165
20
502.72747087906237
30
0
40
1.4999999999999685
210
0
220
0
230
1
0
ARC
5
149
100
AcDbEntity
8
0
100
AcDbCircle
10
-956.11750084467417
20
214.19663308669951
30
0
40
9.1191580857509376
210
0
220
0
230
1
100
AcDbArc
50
180.75204975418922
51
206.51111575418972
0
ARC
5
150
100
AcDbEntity
8
0
100
AcDbCircle
10
-854.518686010593
20
480.70953873386253
30
0
40
14.778740093817348
210
0
220
-0
230
1
100
AcDbArc
50
0.75204854676961186
51
180.7520497541897
0
CIRCLE
5
151
100
AcDbEntity
8
0
100
AcDbCircle
10
-748.41298451180933
20
236.90103161258156
30
0
40
1.5000000000000004
210
0
220
0
230
1
0
LINE
5
152
100
AcDbEntity
8
0
100
AcDbLine
10
-742.28263951089446
20
203.26532683813133
30
0
11
-737.69503255520078
21
213.10033741380715
31
0
0
ENDSEC
0
SECTION
2
OBJECTS
0
DICTIONARY
5
C
100
AcDbDictionary
3
ACAD_GROUP
350
D
3
ACAD_MLINESTYLE
350
17
0
DICTIONARY
5
D
100
AcDbDictionary
0
DICTIONARY
5
1A
330
C
100
AcDbDictionary
0
DICTIONARY
5
17
100
AcDbDictionary
0
ENDSEC
0
EOF
